<?xml version="1.0" encoding="UTF-8"?>
<!DOCTYPE svg PUBLIC "-//W3C//DTD SVG 1.1//EN" "http://www.w3.org/Graphics/SVG/1.1/DTD/svg11.dtd">
<!-- Creator: CorelDRAW X8 -->
<svg xmlns="http://www.w3.org/2000/svg" xml:space="preserve" width="30px" height="30px" version="1.1" style="shape-rendering:geometricPrecision; text-rendering:geometricPrecision; image-rendering:optimizeQuality; fill-rule:evenodd; clip-rule:evenodd"
viewBox="0 0 300000 300000"
 xmlns:xlink="http://www.w3.org/1999/xlink">
 <defs>
  <style type="text/css">
   <![CDATA[
    .fil2 {fill:#FEFEFE}
    .fil0 {fill:#20627B}
    .fil4 {fill:#A9C9DD}
    .fil3 {fill:#C8DAEA}
    .fil6 {fill:#FEFEFE;fill-rule:nonzero}
    .fil1 {fill:#20627B;fill-rule:nonzero}
    .fil5 {fill:url(#id0)}
   ]]>
  </style>
  <linearGradient id="id0" gradientUnits="userSpaceOnUse" x1="157625" y1="257126" x2="166774" y2="271772">
   <stop offset="0" style="stop-opacity:1; stop-color:#EFF7FC"/>
   <stop offset="1" style="stop-opacity:1; stop-color:white"/>
  </linearGradient>
 </defs>
 <g id="Layer_x0020_1">
  <metadata id="CorelCorpID_0Corel-Layer"/>
  <path class="fil0" d="M18155 221587c25415,46709 74928,78412 131845,78412 56918,0 106431,-31703 131845,-78412l-263690 0z"/>
  <path class="fil1" d="M294252 150000c0,-39835 -16146,-75899 -42250,-102002 -26103,-26104 -62167,-42250 -102002,-42250 -39835,0 -75899,16146 -102002,42250 -26104,26103 -42250,62167 -42250,102002 0,39835 16146,75899 42250,102002 26103,26104 62167,42250 102002,42250 39835,0 75899,-16146 102002,-42250 26104,-26103 42250,-62167 42250,-102002zm-38187 -106065c27144,27143 43935,64646 43935,106065 0,41419 -16791,78922 -43935,106065 -27143,27144 -64646,43935 -106065,43935 -41419,0 -78922,-16791 -106065,-43935 -27144,-27143 -43935,-64646 -43935,-106065 0,-41419 16791,-78922 43935,-106065 27143,-27144 64646,-43935 106065,-43935 41419,0 78922,16791 106065,43935z"/>
  <path class="fil2" d="M150000 5748c-39835,0 -75899,16146 -102002,42250 -26104,26103 -42250,62167 -42250,102002 0,26053 6906,50492 18988,71587l250528 0c12082,-21095 18988,-45534 18988,-71587 0,-39835 -16146,-75899 -42250,-102002 -26103,-26104 -62167,-42250 -102002,-42250z"/>
  <g id="_2771910223552">
   <g>
    <path class="fil3" d="M144082 286848c-1423,0 -1182,-538 -1672,-1893l-4186 -13775 32218 -19114 -26360 34782zm0 0l0 0 0 0z"/>
   </g>
   <g>
    <path class="fil4" d="M144082 286848c1099,0 1584,-503 2197,-1099l5857 -5696 -7306 -4406 -748 11201zm0 0l0 0 0 0z"/>
   </g>
   <path class="fil5" d="M144829 275647l17705 13082c2021,1114 3479,537 3982,-1876l7208 -33962c737,-2959 -1129,-4301 -3061,-3423l-42320 16318c-2889,1159 -2872,2771 -527,3489l10861 3390 25142 -15863c1187,-720 2276,-333 1382,461m-20372 18384l0 0 0 0z"/>
  </g>
  <g>
   <path class="fil1" d="M176550 80505c-943,38 -2039,250 -3271,654 -1250,385 -2385,904 -3443,1539 -1309,827 -2387,1789 -3195,2848 -808,1077 -1500,2558 -2116,4482 -2655,8677 -5772,18816 -9292,30418 -3541,11582 -7350,23934 -11468,37055l-5213 0 -20182 -61605 -21010 61605 -4983 0c-3713,-13160 -7580,-26800 -11563,-40942 -3982,-14160 -6657,-23626 -8003,-28435 -346,-1174 -847,-2213 -1501,-3117 -654,-904 -1539,-1712 -2674,-2482 -944,-635 -2041,-1116 -3310,-1424 -1250,-328 -2386,-519 -3405,-596l0 -4040 32611 0 0 4040c-2867,154 -5291,423 -7311,846 -2001,404 -3002,1116 -3002,2078 0,385 58,885 174,1501 95,616 192,1115 269,1501 866,3289 2404,8773 4598,16392 2193,7637 5464,19047 9774,34265l19990 -59469 5521 0 20144 60759c2713,-9351 5041,-17509 7003,-24493 1963,-6983 3599,-12948 4868,-17931 924,-3502 1482,-5888 1712,-7196 212,-1288 327,-2385 327,-3289 0,-1289 -865,-2347 -2616,-3213 -1751,-867 -4580,-1444 -8485,-1751l0 -4040 29052 0 36479 0c7425,0 13467,1789 18103,5387 4637,3597 6946,8369 6946,14352 0,4175 -812,7867 -2444,11082 -1639,3230 -3917,5872 -6791,7984 -2859,2100 -5984,3659 -9389,4637 -3424,983 -7042,1463 -10870,1463l-8947 0 0 24184c0,1326 220,2459 654,3463 432,996 1331,1744 2694,2270 676,261 1866,530 3578,750 1731,223 3310,346 4734,384l0 4041 -34286 0 0 -4041c905,-76 2196,-202 3887,-384 1694,-182 2879,-458 3541,-750 1127,-497 1943,-1193 2442,-2135 500,-943 751,-2136 751,-3598l0 -57680c0,-1309 -184,-2485 -558,-3541 -376,-1061 -1262,-1870 -2656,-2366 -1414,-504 -2828,-830 -4232,-1039 -1422,-212 -2617,-346 -3636,-423zm44405 29301c1258,-1808 2126,-3654 2539,-5598 413,-1941 616,-3675 616,-5214 0,-2136 -243,-4312 -750,-6523 -511,-2232 -1383,-4158 -2616,-5810 -1324,-1772 -3039,-3139 -5177,-4117 -2152,-984 -4810,-1462 -8004,-1462l-7926 0 0 35324 5734 0c4059,0 7352,-631 9870,-1886 2541,-1264 4415,-2849 5714,-4714z"/>
   <path class="fil1" d="M81650 168249l-1018 0c-332,-2112 -1119,-3393 -2353,-3825 -540,-193 -1465,-293 -2777,-293l-1812 0 0 14393c0,1102 31,1804 92,2128 147,887 517,1427 1103,1627 416,132 1381,225 2877,270l0 833 -11246 0 0 -833c1543,-30 2515,-324 2924,-878 332,-455 501,-1504 501,-3147l0 -14393 -1851 0c-1165,0 -1913,39 -2245,116 -678,162 -1257,571 -1735,1233 -439,603 -809,1527 -1111,2769l-1018 0 857 -5599 17909 0 903 5599zm19807 9904l-1782 5229 -16729 0 0 -833 725 0c995,0 1643,-300 1943,-902 193,-393 294,-1125 294,-2198l0 -12912c0,-1126 -101,-1874 -294,-2236 -285,-548 -933,-818 -1943,-818l-725 0 0 -833 16714 0 224 4536 -1019 0c-270,-1397 -663,-2269 -1172,-2631 -432,-285 -1381,-424 -2838,-424l-5199 0 0 7682 4095 0c1158,0 1967,-208 2430,-632 463,-425 726,-1219 787,-2376l1018 0 0 7543 -1018 0c-177,-1249 -447,-2067 -810,-2445 -416,-439 -1219,-655 -2407,-655l-4095 0 0 6325c0,949 62,1542 177,1789 217,362 726,540 1536,540l3486 0c1411,0 2499,-255 3255,-764 755,-502 1519,-1504 2283,-2985l1064 0zm20841 -601l-1781 5830 -16776 0 0 -833 786 0c864,0 1489,-284 1859,-855 209,-316 317,-1065 317,-2252l0 -12874c0,-1272 -139,-2074 -425,-2407 -393,-454 -972,-678 -1751,-678l-786 0 0 -833 10181 0 0 833c-1752,-16 -2831,362 -3224,1134 -162,324 -247,1103 -247,2322l0 12541c0,1265 262,2006 787,2214 269,108 1065,162 2391,162l1056 0c1258,0 2176,-70 2746,-201 918,-231 1690,-694 2322,-1403 525,-602 1049,-1528 1573,-2793l972 93zm19606 601l-1782 5229 -16729 0 0 -833 726 0c994,0 1643,-300 1943,-902 193,-393 293,-1125 293,-2198l0 -12912c0,-1126 -100,-1874 -293,-2236 -286,-548 -933,-818 -1943,-818l-726 0 0 -833 16715 0 223 4536 -1018 0c-270,-1397 -663,-2269 -1172,-2631 -433,-285 -1381,-424 -2839,-424l-5198 0 0 7682 4095 0c1157,0 1967,-208 2430,-632 463,-425 725,-1219 787,-2376l1018 0 0 7543 -1018 0c-177,-1249 -447,-2067 -810,-2445 -417,-439 -1219,-655 -2407,-655l-4095 0 0 6325c0,949 61,1542 177,1789 216,362 726,540 1535,540l3486 0c1411,0 2499,-255 3256,-764 755,-502 1519,-1504 2283,-2985l1063 0zm21860 -3470c-779,0 -1304,231 -1574,701 -185,332 -278,910 -278,1735l0 5106c-2151,1173 -4727,1760 -7728,1760 -2799,0 -5152,-1173 -7049,-3526 -1752,-2167 -2623,-4643 -2623,-7435 0,-2962 956,-5515 2869,-7651 1991,-2214 4474,-3325 7452,-3325 694,0 1588,170 2691,509 1095,340 1797,510 2098,510 317,0 633,-139 949,-417l880 0 0 6433 -880 0c-177,-1589 -772,-2893 -1758,-3910 -1057,-1096 -2376,-1643 -3973,-1643 -2122,0 -3718,755 -4789,2259 -949,1327 -1420,3093 -1420,5307 0,2769 424,5129 1265,7088 1157,2722 2985,4088 5468,4088 1011,0 1945,-239 2801,-725l0 -4428c0,-1627 -618,-2436 -1852,-2436l0 -834 7451 0 0 834zm22731 8699l-6093 0 -6703 -9672c-362,16 -701,24 -1003,24 -131,0 -270,0 -417,0 -153,0 -308,-8 -454,-24l0 5762c0,1273 146,2075 432,2407 392,447 971,670 1735,670l795 0 0 833 -9626 0 0 -833 786 0c864,0 1489,-284 1859,-855 208,-316 317,-1058 317,-2229l0 -12897c0,-1288 -139,-2090 -424,-2407 -409,-454 -988,-678 -1752,-678l-786 0 0 -833 8314 0c5870,0 8809,1781 8809,5353 0,2823 -1582,4589 -4751,5298l4157 5948c1002,1426 1650,2252 1935,2475 533,402 1490,680 2870,825l0 833zm-8099 -15179c0,-1149 -370,-2113 -1103,-2892 -740,-787 -1766,-1180 -3077,-1180 -648,0 -1443,93 -2391,270l0 7828c170,16 307,23 432,23 147,0 292,0 424,0 1627,0 2946,-331 3957,-994 1172,-802 1758,-1820 1758,-3055zm31231 15179l-9117 0 0 -833c1412,-77 2114,-493 2114,-1264 0,-440 -201,-1150 -610,-2129l-1125 -2715 -8014 0 -1297 3015c-346,810 -524,1404 -524,1782 0,756 794,1188 2376,1311l0 833 -6850 0 0 -833c848,-153 1412,-354 1681,-608 672,-633 1250,-1536 1752,-2692l7319 -17062 1597 0 7158 17239c447,1087 971,1897 1573,2422 487,424 1142,656 1967,701l0 833zm-9201 -8052l-3479 -8384 -3595 8384 7074 0zm24149 2646l6463 -15326 6981 0 0 833c-1026,0 -1713,101 -2052,308 -339,201 -602,456 -802,764 -193,301 -293,1288 -293,2954l0 11015c0,1434 70,2352 216,2768 139,417 440,733 879,942 447,208 1134,315 2052,315l0 833 -9950 0 0 -833c1211,0 2021,-231 2437,-693 409,-455 618,-1574 618,-3332l0 -12480 -7313 17338 -787 0 -7496 -17338 0 12480c0,1426 76,2352 223,2768 154,417 447,726 887,942 440,208 1119,315 2036,315l0 833 -7913 0 0 -833c1342,0 2205,-246 2584,-732 378,-494 563,-1589 563,-3293l0 -11015c0,-1620 -86,-2584 -247,-2876 -169,-294 -425,-564 -772,-795 -346,-240 -1056,-355 -2128,-355l0 -833 7243 0 6571 15326z"/>
  </g>
  <path class="fil6" d="M105348 227142l301 4518 -301 0c-405,-1352 -980,-2329 -1731,-2922 -749,-596 -1646,-893 -2697,-893 -876,0 -1673,224 -2383,672 -709,449 -1268,1162 -1676,2146 -406,980 -610,2202 -610,3661 0,1205 191,2249 576,3133 385,883 964,1559 1734,2031 773,472 1653,706 2640,706 861,0 1620,-184 2276,-552 659,-368 1383,-1101 2169,-2199l304 201c-665,1181 -1442,2044 -2329,2593 -887,546 -1941,820 -3159,820 -2199,0 -3903,-816 -5108,-2453 -900,-1218 -1351,-2651 -1351,-4297 0,-1329 297,-2550 890,-3662 592,-1114 1409,-1974 2446,-2586 1041,-613 2175,-917 3407,-917 957,0 1901,234 2835,706 271,143 468,217 586,217 174,0 327,-63 458,-187 171,-177 291,-422 361,-736l362 0z"/>
  <path id="1" class="fil6" d="M113990 227142c1723,0 3219,656 4481,1968 1265,1311 1897,2948 1897,4913 0,2021 -636,3698 -1910,5033 -1272,1336 -2816,2001 -4626,2001 -1827,0 -3363,-652 -4608,-1954 -1245,-1302 -1867,-2986 -1867,-5053 0,-2113 719,-3836 2155,-5171 1248,-1158 2741,-1737 4478,-1737zm-188 703c-1185,0 -2139,441 -2854,1325 -895,1101 -1343,2711 -1343,4833 0,2172 462,3845 1389,5016 713,890 1650,1336 2818,1336 1248,0 2276,-489 3089,-1463 813,-977 1218,-2513 1218,-4615 0,-2279 -448,-3980 -1342,-5097 -716,-890 -1706,-1335 -2975,-1335z"/>
  <path id="2" class="fil6" d="M129368 240756l-5141 -11201 0 8892c0,820 90,1332 267,1536 245,274 633,412 1165,412l476 0 0 361 -4679 0 0 -361 479 0c568,0 970,-171 1211,-512 144,-211 218,-689 218,-1436l0 -8695c0,-589 -67,-1017 -198,-1278 -94,-191 -265,-348 -512,-479 -251,-127 -650,-190 -1198,-190l0 -362 3815 0 4799 10408 4756 -10408 3779 0 0 362 -465 0c-580,0 -984,170 -1225,512 -144,210 -218,689 -218,1435l0 8695c0,820 94,1332 278,1536 244,274 632,412 1165,412l465 0 0 361 -5704 0 0 -361 479 0c576,0 978,-171 1212,-512 143,-211 217,-689 217,-1436l0 -8892 -5120 11201 -321 0z"/>
  <path id="3" class="fil6" d="M147223 240756l-5141 -11201 0 8892c0,820 90,1332 267,1536 245,274 633,412 1165,412l476 0 0 361 -4679 0 0 -361 478 0c569,0 971,-171 1212,-512 144,-211 218,-689 218,-1436l0 -8695c0,-589 -68,-1017 -198,-1278 -94,-191 -265,-348 -512,-479 -251,-127 -650,-190 -1198,-190l0 -362 3815 0 4799 10408 4756 -10408 3779 0 0 362 -465 0c-580,0 -985,170 -1225,512 -144,210 -218,689 -218,1435l0 8695c0,820 94,1332 278,1536 244,274 632,412 1165,412l465 0 0 361 -5704 0 0 -361 479 0c576,0 977,-171 1212,-512 143,-211 217,-689 217,-1436l0 -8892 -5120 11201 -321 0z"/>
  <path id="4" class="fil6" d="M161061 228166l0 5261 2932 0c759,0 1265,-114 1519,-341 342,-301 529,-830 569,-1587l362 0 0 4639 -362 0c-90,-650 -184,-1068 -274,-1252 -117,-227 -311,-408 -579,-539 -268,-131 -680,-197 -1235,-197l-2932 0 0 4391c0,589 27,947 78,1074 53,127 144,231 274,305 130,76 381,113 746,113l2252 0c750,0 1296,-53 1637,-157 338,-104 666,-311 977,-619 405,-405 820,-1018 1245,-1834l402 0 -1148 3333 -10258 0 0 -361 472 0c315,0 612,-77 893,-228 211,-103 355,-261 429,-472 77,-211 114,-639 114,-1288l0 -8655c0,-843 -84,-1362 -255,-1556 -237,-261 -629,-391 -1181,-391l-472 0 0 -362 10261 0 141 2932 -382 0c-137,-707 -288,-1192 -455,-1456 -167,-265 -415,-465 -739,-606 -261,-97 -724,-147 -1382,-147l-3649 0z"/>
  <path id="5" class="fil6" d="M168863 227443l3577 0 8156 9997 0 -7688c0,-820 -93,-1332 -277,-1536 -245,-274 -633,-411 -1162,-411l-468 0 0 -362 4678 0 0 362 -475 0c-572,0 -974,170 -1215,512 -144,210 -217,689 -217,1435l0 11219 -355 0 -8761 -10724 0 8200c0,820 90,1332 267,1536 251,274 639,412 1164,412l476 0 0 361 -4679 0 0 -361 468 0c576,0 981,-171 1223,-512 143,-211 217,-689 217,-1436l0 -9257c-385,-452 -680,-749 -877,-893 -201,-144 -492,-279 -877,-406 -191,-57 -479,-86 -863,-86l0 -362z"/>
  <path id="6" class="fil6" d="M195258 227443l141 3129 -371 0c-74,-549 -171,-944 -295,-1178 -204,-378 -472,-659 -810,-837 -338,-180 -780,-271 -1329,-271l-1874 0 0 10161c0,820 87,1332 265,1536 247,274 629,412 1144,412l458 0 0 361 -5662 0 0 -361 478 0c569,0 971,-171 1212,-512 144,-211 217,-689 217,-1436l0 -10161 -1596 0c-622,0 -1064,47 -1325,137 -342,124 -630,362 -874,717 -241,351 -385,830 -432,1432l-371 0 141 -3129 10883 0z"/>
  <path id="7" class="fil6" d="M205114 227142l0 4598 -361 0c-117,-884 -328,-1586 -633,-2108 -304,-522 -739,-937 -1305,-1245 -562,-308 -1144,-462 -1746,-462 -684,0 -1245,208 -1691,622 -445,415 -669,891 -669,1420 0,404 140,776 422,1110 408,489 1371,1145 2898,1962 1245,669 2095,1181 2550,1536 455,358 807,776 1051,1261 244,486 368,991 368,1523 0,1008 -392,1875 -1172,2604 -782,730 -1790,1094 -3018,1094 -389,0 -750,-29 -1091,-90 -204,-34 -623,-154 -1262,-362 -636,-207 -1040,-310 -1211,-310 -164,0 -295,50 -389,146 -93,101 -164,305 -211,616l-361 0 0 -4558 361 0c171,954 399,1670 687,2142 288,475 729,870 1322,1182 592,314 1241,472 1948,472 816,0 1465,-218 1937,-650 475,-435 713,-947 713,-1536 0,-328 -90,-659 -268,-994 -180,-335 -458,-646 -836,-937 -255,-198 -954,-613 -2096,-1248 -1141,-633 -1954,-1142 -2436,-1520 -482,-378 -850,-800 -1097,-1255 -252,-458 -375,-964 -375,-1512 0,-955 368,-1778 1101,-2468 732,-689 1669,-1033 2801,-1033 709,0 1459,174 2252,519 368,164 626,244 776,244 171,0 312,-51 419,-151 107,-104 194,-304 261,-612l361 0z"/>
 </g>
</svg>
